<svg width="90" height="110" viewBox="0 0 90 110" fill="none" xmlns="http://www.w3.org/2000/svg">
<g clip-path="url(#clip0_835_331)">
<path d="M86.8951 110C88.6099 110 90.0001 108.611 90.0001 106.897C90.0001 105.183 88.6099 103.794 86.8951 103.794C85.1802 103.794 83.79 105.183 83.79 106.897C83.79 108.611 85.1802 110 86.8951 110Z" fill="#415DA1"/>
<path d="M86.8951 89.2406C88.6099 89.2406 90.0001 87.8512 90.0001 86.1374C90.0001 84.4235 88.6099 83.0342 86.8951 83.0342C85.1802 83.0342 83.79 84.4235 83.79 86.1374C83.79 87.8512 85.1802 89.2406 86.8951 89.2406Z" fill="#415DA1"/>
<path d="M86.8951 68.4827C88.6099 68.4827 90.0001 67.0934 90.0001 65.3796C90.0001 63.6657 88.6099 62.2764 86.8951 62.2764C85.1802 62.2764 83.79 63.6657 83.79 65.3796C83.79 67.0934 85.1802 68.4827 86.8951 68.4827Z" fill="#415DA1"/>
<path d="M83.7876 44.6222C83.7876 45.2365 83.9699 45.8371 84.3114 46.3479C84.653 46.8586 85.1385 47.2567 85.7065 47.4917C86.2744 47.7266 86.8993 47.788 87.5022 47.668C88.105 47.548 88.6587 47.252 89.0932 46.8174C89.5277 46.3829 89.8235 45.8292 89.9431 45.2266C90.0627 44.624 90.0008 43.9995 89.7653 43.4321C89.5297 42.8646 89.1311 42.3798 88.6197 42.0388C88.1084 41.6979 87.5073 41.5161 86.8927 41.5166C86.0689 41.5172 85.2791 41.8447 84.6969 42.427C84.1146 43.0094 83.7876 43.7989 83.7876 44.6222Z" fill="#415DA1"/>
<path d="M83.7876 23.863C83.7871 24.4774 83.969 25.0782 84.3103 25.5893C84.6515 26.1003 85.1368 26.4988 85.7047 26.7341C86.2727 26.9695 86.8977 27.0311 87.5007 26.9114C88.1037 26.7916 88.6576 26.4958 89.0923 26.0613C89.5271 25.6268 89.8231 25.0733 89.9429 24.4706C90.0628 23.8679 90.001 23.2433 89.7655 22.6757C89.53 22.1081 89.1313 21.6232 88.62 21.2821C88.1086 20.9411 87.5075 20.7593 86.8927 20.7598C86.0693 20.7604 85.2799 21.0876 84.6977 21.6694C84.1156 22.2512 83.7882 23.0402 83.7876 23.863Z" fill="#415DA1"/>
<path d="M86.8951 6.20638C88.6099 6.20638 90.0001 4.81704 90.0001 3.10319C90.0001 1.38935 88.6099 0 86.8951 0C85.1802 0 83.79 1.38935 83.79 3.10319C83.79 4.81704 85.1802 6.20638 86.8951 6.20638Z" fill="#415DA1"/>
<path d="M70.138 110C71.8529 110 73.243 108.611 73.243 106.897C73.243 105.183 71.8529 103.794 70.138 103.794C68.4231 103.794 67.033 105.183 67.033 106.897C67.033 108.611 68.4231 110 70.138 110Z" fill="#415DA1"/>
<path d="M70.138 89.2406C71.8529 89.2406 73.243 87.8512 73.243 86.1374C73.243 84.4235 71.8529 83.0342 70.138 83.0342C68.4231 83.0342 67.033 84.4235 67.033 86.1374C67.033 87.8512 68.4231 89.2406 70.138 89.2406Z" fill="#415DA1"/>
<path d="M70.138 68.4827C71.8529 68.4827 73.243 67.0934 73.243 65.3796C73.243 63.6657 71.8529 62.2764 70.138 62.2764C68.4231 62.2764 67.033 63.6657 67.033 65.3796C67.033 67.0934 68.4231 68.4827 70.138 68.4827Z" fill="#415DA1"/>
<path d="M67.0305 44.6222C67.0305 45.2365 67.2128 45.8371 67.5544 46.3479C67.8959 46.8586 68.3814 47.2567 68.9494 47.4917C69.5173 47.7266 70.1422 47.788 70.7451 47.668C71.3479 47.548 71.9017 47.252 72.3361 46.8174C72.7706 46.3829 73.0664 45.8292 73.186 45.2266C73.3057 44.624 73.2437 43.9995 73.0082 43.4321C72.7726 42.8646 72.374 42.3798 71.8626 42.0388C71.3513 41.6979 70.7503 41.5161 70.1356 41.5166C69.7276 41.5166 69.3236 41.5969 68.9467 41.753C68.5698 41.9091 68.2274 42.1379 67.9391 42.4263C67.6507 42.7147 67.4221 43.0572 67.2662 43.434C67.1103 43.8107 67.0302 44.2145 67.0305 44.6222Z" fill="#415DA1"/>
<path d="M67.0305 23.863C67.03 24.4774 67.2119 25.0782 67.5532 25.5893C67.8945 26.1003 68.3797 26.4988 68.9477 26.7341C69.5156 26.9695 70.1406 27.0311 70.7436 26.9114C71.3466 26.7916 71.9005 26.4958 72.3353 26.0613C72.77 25.6268 73.066 25.0733 73.1859 24.4706C73.3057 23.8679 73.2439 23.2433 73.0084 22.6757C72.7729 22.1081 72.3743 21.6232 71.8629 21.2821C71.3515 20.9411 70.7504 20.7593 70.1356 20.7598C69.3121 20.7598 68.5223 21.0867 67.94 21.6687C67.3577 22.2506 67.0305 23.04 67.0305 23.863Z" fill="#415DA1"/>
<path d="M70.138 6.20638C71.8529 6.20638 73.243 4.81704 73.243 3.10319C73.243 1.38935 71.8529 0 70.138 0C68.4231 0 67.033 1.38935 67.033 3.10319C67.033 4.81704 68.4231 6.20638 70.138 6.20638Z" fill="#415DA1"/>
<path d="M50.2637 106.897C50.2637 107.511 50.4459 108.111 50.7873 108.622C51.1288 109.133 51.6141 109.531 52.1819 109.766C52.7498 110.001 53.3746 110.062 53.9774 109.943C54.5802 109.823 55.1338 109.527 55.5684 109.093C56.003 108.658 56.299 108.105 56.4189 107.502C56.5388 106.9 56.4772 106.276 56.242 105.708C56.0068 105.141 55.6086 104.656 55.0976 104.314C54.5865 103.973 53.9857 103.791 53.3711 103.791C52.963 103.791 52.5587 103.871 52.1816 104.027C51.8044 104.183 51.4617 104.411 51.1731 104.7C50.8845 104.988 50.6556 105.331 50.4995 105.708C50.3435 106.085 50.2634 106.489 50.2637 106.897Z" fill="#415DA1"/>
<path d="M50.2637 86.1374C50.2632 86.7517 50.4451 87.3524 50.7862 87.8634C51.1274 88.3745 51.6125 88.7729 52.1803 89.0083C52.7481 89.2437 53.3729 89.3056 53.9759 89.186C54.5788 89.0665 55.1328 88.7709 55.5676 88.3367C56.0024 87.9024 56.2986 87.349 56.4187 86.7466C56.5388 86.1441 56.4774 85.5195 56.2423 84.9519C56.0072 84.3843 55.6089 83.8992 55.0978 83.5578C54.5867 83.2165 53.9858 83.0342 53.3711 83.0342C52.5474 83.0342 51.7574 83.3611 51.1747 83.943C50.592 84.5249 50.2643 85.3141 50.2637 86.1374Z" fill="#415DA1"/>
<path d="M50.2637 65.3796C50.2632 65.9939 50.4451 66.5946 50.7862 67.1056C51.1274 67.6166 51.6125 68.0151 52.1803 68.2505C52.7481 68.4859 53.3729 68.5478 53.9759 68.4282C54.5788 68.3087 55.1328 68.0131 55.5676 67.5788C56.0024 67.1446 56.2986 66.5912 56.4187 65.9887C56.5388 65.3862 56.4774 64.7617 56.2423 64.1941C56.0072 63.6265 55.6089 63.1413 55.0978 62.7999C54.5867 62.4586 53.9858 62.2764 53.3711 62.2764C52.5474 62.2764 51.7574 62.6033 51.1747 63.1852C50.592 63.767 50.2643 64.5563 50.2637 65.3796Z" fill="#415DA1"/>
<path d="M50.2637 44.6222C50.2637 45.2364 50.4459 45.8369 50.7873 46.3476C51.1288 46.8583 51.6141 47.2564 52.1819 47.4914C52.7497 47.7265 53.3746 47.7881 53.9774 47.6682C54.5801 47.5484 55.1338 47.2526 55.5684 46.8183C56.003 46.3839 56.299 45.8306 56.4189 45.2281C56.5388 44.6257 56.4772 44.0012 56.242 43.4337C56.0068 42.8663 55.6086 42.3813 55.0976 42.04C54.5865 41.6988 53.9857 41.5166 53.3711 41.5166C52.547 41.5166 51.7566 41.8438 51.1738 42.4262C50.5911 43.0086 50.2637 43.7985 50.2637 44.6222Z" fill="#415DA1"/>
<path d="M50.2637 23.863C50.2632 24.4773 50.4451 25.078 50.7862 25.589C51.1274 26.1 51.6125 26.4985 52.1803 26.7339C52.7481 26.9693 53.3729 27.0312 53.9759 26.9116C54.5788 26.7921 55.1328 26.4965 55.5676 26.0622C56.0024 25.628 56.2986 25.0746 56.4187 24.4721C56.5388 23.8696 56.4774 23.2451 56.2423 22.6775C56.0072 22.1099 55.6089 21.6247 55.0978 21.2833C54.5867 20.9419 53.9858 20.7598 53.3711 20.7598C52.5474 20.7598 51.7574 21.0867 51.1747 21.6685C50.592 22.2504 50.2643 23.0397 50.2637 23.863Z" fill="#415DA1"/>
<path d="M50.2637 3.10557C50.2637 3.7198 50.4459 4.32031 50.7873 4.83102C51.1288 5.34174 51.6141 5.73977 52.1819 5.97482C52.7498 6.20988 53.3746 6.27133 53.9774 6.1515C54.5802 6.03167 55.1338 5.73598 55.5684 5.30165C56.003 4.86732 56.299 4.31386 56.4189 3.71143C56.5388 3.109 56.4772 2.4846 56.242 1.91713C56.0068 1.34965 55.6086 0.864671 55.0976 0.523422C54.5865 0.182174 53.9857 9.43698e-07 53.3711 9.43698e-07C52.963 -0.000317126 52.5587 0.0797708 52.1816 0.23573C51.8044 0.391688 51.4617 0.620457 51.1731 0.908903C50.8845 1.19735 50.6556 1.53984 50.4995 1.91677C50.3435 2.29371 50.2634 2.69765 50.2637 3.10557Z" fill="#415DA1"/>
<path d="M36.6214 110C38.3363 110 39.7264 108.611 39.7264 106.897C39.7264 105.183 38.3363 103.794 36.6214 103.794C34.9065 103.794 33.5164 105.183 33.5164 106.897C33.5164 108.611 34.9065 110 36.6214 110Z" fill="#415DA1"/>
<path d="M36.6214 89.2406C38.3363 89.2406 39.7264 87.8512 39.7264 86.1374C39.7264 84.4235 38.3363 83.0342 36.6214 83.0342C34.9065 83.0342 33.5164 84.4235 33.5164 86.1374C33.5164 87.8512 34.9065 89.2406 36.6214 89.2406Z" fill="#415DA1"/>
<path d="M36.6214 68.4827C38.3363 68.4827 39.7264 67.0934 39.7264 65.3796C39.7264 63.6657 38.3363 62.2764 36.6214 62.2764C34.9065 62.2764 33.5164 63.6657 33.5164 65.3796C33.5164 67.0934 34.9065 68.4827 36.6214 68.4827Z" fill="#415DA1"/>
<path d="M33.5142 44.6222C33.5142 45.2364 33.6964 45.8369 34.0378 46.3476C34.3793 46.8583 34.8646 47.2564 35.4324 47.4914C36.0002 47.7265 36.6251 47.7881 37.2279 47.6682C37.8306 47.5484 38.3843 47.2526 38.8189 46.8183C39.2535 46.3839 39.5495 45.8306 39.6694 45.2281C39.7893 44.6257 39.7277 44.0012 39.4925 43.4337C39.2573 42.8663 38.859 42.3813 38.348 42.04C37.837 41.6988 37.2362 41.5166 36.6216 41.5166C35.7974 41.5166 35.0071 41.8438 34.4243 42.4262C33.8416 43.0086 33.5142 43.7985 33.5142 44.6222Z" fill="#415DA1"/>
<path d="M33.5142 23.863C33.5137 24.4773 33.6955 25.078 34.0367 25.589C34.3778 26.1 34.863 26.4985 35.4308 26.7339C35.9985 26.9693 36.6234 27.0312 37.2264 26.9116C37.8293 26.7921 38.3832 26.4965 38.8181 26.0622C39.2529 25.628 39.5491 25.0746 39.6692 24.4721C39.7893 23.8696 39.7279 23.2451 39.4928 22.6775C39.2576 22.1099 38.8594 21.6247 38.3483 21.2833C37.8372 20.9419 37.2363 20.7598 36.6216 20.7598C35.7978 20.7598 35.0078 21.0867 34.4251 21.6685C33.8424 22.2504 33.5148 23.0397 33.5142 23.863Z" fill="#415DA1"/>
<path d="M36.6214 6.20638C38.3363 6.20638 39.7264 4.81704 39.7264 3.10319C39.7264 1.38935 38.3363 0 36.6214 0C34.9065 0 33.5164 1.38935 33.5164 3.10319C33.5164 4.81704 34.9065 6.20638 36.6214 6.20638Z" fill="#415DA1"/>
<path d="M19.8646 110C21.5794 110 22.9696 108.611 22.9696 106.897C22.9696 105.183 21.5794 103.794 19.8646 103.794C18.1497 103.794 16.7595 105.183 16.7595 106.897C16.7595 108.611 18.1497 110 19.8646 110Z" fill="#415DA1"/>
<path d="M19.8646 89.2406C21.5794 89.2406 22.9696 87.8512 22.9696 86.1374C22.9696 84.4235 21.5794 83.0342 19.8646 83.0342C18.1497 83.0342 16.7595 84.4235 16.7595 86.1374C16.7595 87.8512 18.1497 89.2406 19.8646 89.2406Z" fill="#415DA1"/>
<path d="M19.8646 68.4827C21.5794 68.4827 22.9696 67.0934 22.9696 65.3796C22.9696 63.6657 21.5794 62.2764 19.8646 62.2764C18.1497 62.2764 16.7595 63.6657 16.7595 65.3796C16.7595 67.0934 18.1497 68.4827 19.8646 68.4827Z" fill="#415DA1"/>
<path d="M16.7571 44.6222C16.7571 45.2365 16.9394 45.8371 17.2809 46.3479C17.6225 46.8586 18.108 47.2567 18.6759 47.4917C19.2439 47.7266 19.8688 47.788 20.4717 47.668C21.0745 47.548 21.6282 47.252 22.0627 46.8174C22.4972 46.3829 22.793 45.8292 22.9126 45.2266C23.0322 44.624 22.9703 43.9995 22.7347 43.4321C22.4992 42.8646 22.1005 42.3798 21.5892 42.0388C21.0779 41.6979 20.4768 41.5161 19.8621 41.5166C19.4541 41.5166 19.0502 41.5969 18.6733 41.753C18.2964 41.9091 17.954 42.1379 17.6656 42.4263C17.3773 42.7147 17.1486 43.0572 16.9927 43.434C16.8368 43.8107 16.7568 44.2145 16.7571 44.6222Z" fill="#415DA1"/>
<path d="M16.7571 23.863C16.7566 24.4774 16.9385 25.0782 17.2797 25.5893C17.621 26.1003 18.1063 26.4988 18.6742 26.7341C19.2421 26.9695 19.8672 27.0311 20.4702 26.9114C21.0732 26.7916 21.6271 26.4958 22.0618 26.0613C22.4966 25.6268 22.7926 25.0733 22.9124 24.4706C23.0322 23.8679 22.9705 23.2433 22.735 22.6757C22.4995 22.1081 22.1008 21.6232 21.5894 21.2821C21.078 20.9411 20.4769 20.7593 19.8621 20.7598C19.0386 20.7598 18.2488 21.0867 17.6665 21.6687C17.0842 22.2506 16.7571 23.04 16.7571 23.863Z" fill="#415DA1"/>
<path d="M19.8646 6.20638C21.5794 6.20638 22.9696 4.81704 22.9696 3.10319C22.9696 1.38935 21.5794 0 19.8646 0C18.1497 0 16.7595 1.38935 16.7595 3.10319C16.7595 4.81704 18.1497 6.20638 19.8646 6.20638Z" fill="#415DA1"/>
<path d="M3.77879e-06 106.897C3.96521e-06 107.511 0.182296 108.112 0.523854 108.622C0.865413 109.133 1.35091 109.531 1.91886 109.766C2.48681 110.001 3.11173 110.062 3.71458 109.942C4.31743 109.822 4.87108 109.526 5.30557 109.092C5.74006 108.657 6.03583 108.104 6.15546 107.501C6.27508 106.898 6.21323 106.274 5.97767 105.706C5.7421 105.139 5.3434 104.654 4.83206 104.313C4.32073 103.972 3.7197 103.791 3.105 103.791C2.69695 103.791 2.29287 103.871 1.91585 104.027C1.53882 104.183 1.19627 104.412 0.90785 104.7C0.619426 104.989 0.390773 105.331 0.234986 105.708C0.0791989 106.085 -0.000632933 106.489 3.77879e-06 106.897Z" fill="#415DA1"/>
<path d="M9.4224e-07 86.1374C-0.000477689 86.7518 0.181402 87.3526 0.52267 87.8637C0.863937 88.3748 1.34923 88.7732 1.91714 89.0085C2.48505 89.2439 3.11009 89.3057 3.7131 89.1859C4.31611 89.0662 4.87001 88.7703 5.30474 88.3358C5.73947 87.9014 6.03545 87.3478 6.15528 86.7451C6.2751 86.1425 6.2134 85.5178 5.9779 84.9502C5.74241 84.3827 5.34374 83.8977 4.83235 83.5567C4.32097 83.2156 3.7198 83.0337 3.10499 83.0342C2.28149 83.0342 1.49175 83.3611 0.909442 83.9431C0.327136 84.525 9.4224e-07 85.3144 9.4224e-07 86.1374Z" fill="#415DA1"/>
<path d="M9.4224e-07 65.3796C-0.000477689 65.994 0.181402 66.5948 0.52267 67.1059C0.863937 67.6169 1.34923 68.0154 1.91714 68.2507C2.48505 68.4861 3.11009 68.5477 3.7131 68.428C4.31611 68.3082 4.87001 68.0125 5.30474 67.578C5.73947 67.1435 6.03545 66.5899 6.15528 65.9872C6.2751 65.3846 6.2134 64.76 5.9779 64.1924C5.74241 63.6249 5.34374 63.1398 4.83235 62.7987C4.32097 62.4577 3.7198 62.2759 3.10499 62.2764C2.28149 62.2764 1.49175 62.6033 0.909442 63.1853C0.327136 63.7672 9.4224e-07 64.5566 9.4224e-07 65.3796Z" fill="#415DA1"/>
<path d="M9.43585e-07 44.6222C1.13001e-06 45.2365 0.182293 45.8371 0.523852 46.3479C0.86541 46.8586 1.3509 47.2567 1.91886 47.4917C2.48681 47.7266 3.11172 47.788 3.71458 47.668C4.31743 47.548 4.87108 47.252 5.30557 46.8174C5.74006 46.3829 6.03582 45.8292 6.15545 45.2266C6.27508 44.624 6.21323 43.9995 5.97766 43.4321C5.7421 42.8646 5.3434 42.3798 4.83206 42.0388C4.32072 41.6979 3.71969 41.5161 3.10499 41.5166C2.69703 41.5166 2.29308 41.5969 1.9162 41.753C1.53932 41.9091 1.19692 42.1379 0.908556 42.4263C0.620196 42.7147 0.391533 43.0572 0.235633 43.434C0.0797331 43.8107 -0.000317032 44.2145 9.43585e-07 44.6222Z" fill="#415DA1"/>
<path d="M9.4224e-07 23.863C-0.000477689 24.4774 0.181402 25.0782 0.52267 25.5893C0.863937 26.1003 1.34923 26.4988 1.91714 26.7341C2.48505 26.9695 3.11009 27.0311 3.7131 26.9114C4.31611 26.7916 4.87001 26.4958 5.30474 26.0613C5.73947 25.6268 6.03545 25.0733 6.15528 24.4706C6.2751 23.8679 6.2134 23.2433 5.9779 22.6757C5.74241 22.1081 5.34374 21.6232 4.83235 21.2821C4.32097 20.9411 3.7198 20.7593 3.10499 20.7598C2.28149 20.7598 1.49175 21.0867 0.909442 21.6687C0.327136 22.2506 9.4224e-07 23.04 9.4224e-07 23.863Z" fill="#415DA1"/>
<path d="M3.77879e-06 3.10557C3.96521e-06 3.71991 0.182296 4.32049 0.523854 4.83126C0.865413 5.34202 1.35091 5.74008 1.91886 5.97506C2.48681 6.21005 3.11173 6.27141 3.71458 6.15138C4.31743 6.03136 4.87108 5.73528 5.30557 5.30071C5.74006 4.86614 6.03583 4.3126 6.15546 3.71001C6.27508 3.10742 6.21323 2.48291 5.97767 1.91547C5.7421 1.34804 5.3434 0.863199 4.83206 0.522241C4.32073 0.181284 3.7197 -0.000477508 3.105 9.45802e-07C2.69695 -0.000317655 2.29287 0.0798593 1.91585 0.235848C1.53882 0.391836 1.19627 0.620543 0.90785 0.909021C0.619426 1.1975 0.390773 1.53997 0.234986 1.91689C0.0791989 2.29381 -0.000632933 2.69776 3.77879e-06 3.10557Z" fill="#415DA1"/>
</g>
<defs>
<clipPath id="clip0_835_331">
<rect width="90" height="110" fill="white"/>
</clipPath>
</defs>
</svg>
